<mxfile host="app.diagrams.net" modified="2024-06-24T18:32:54.847Z" agent="Mozilla/5.0 (Windows NT 10.0; Win64; x64) AppleWebKit/537.36 (KHTML, like Gecko) Chrome/126.0.0.0 Safari/537.36" etag="nkla8GzSgTnwQkHS5HGw" version="24.2.7" type="google">
  <diagram name="Página-1" id="dGSh2rBfns_4DVF4fsEw">
    <mxGraphModel grid="1" page="1" gridSize="10" guides="1" tooltips="1" connect="1" arrows="1" fold="1" pageScale="1" pageWidth="827" pageHeight="1169" math="0" shadow="0">
      <root>
        <mxCell id="0" />
        <mxCell id="1" parent="0" />
        <mxCell id="v50nEGcKKZURV2WaWR_b-10" value="" style="ellipse;whiteSpace=wrap;html=1;aspect=fixed;" vertex="1" parent="1">
          <mxGeometry x="40" y="367.58000000000004" width="116" height="116" as="geometry" />
        </mxCell>
        <mxCell id="v50nEGcKKZURV2WaWR_b-3" value="" style="shape=image;verticalLabelPosition=bottom;labelBackgroundColor=default;verticalAlign=top;aspect=fixed;imageAspect=0;image=https://i.pinimg.com/736x/13/9b/db/139bdb29ac6060ea542c2d0ae6516892.jpg;" vertex="1" parent="1">
          <mxGeometry x="87" y="378.91" width="30" height="30" as="geometry" />
        </mxCell>
        <mxCell id="v50nEGcKKZURV2WaWR_b-4" value="" style="shape=image;verticalLabelPosition=bottom;labelBackgroundColor=default;verticalAlign=top;aspect=fixed;imageAspect=0;image=https://i.pinimg.com/736x/13/9b/db/139bdb29ac6060ea542c2d0ae6516892.jpg;" vertex="1" parent="1">
          <mxGeometry x="117" y="400.25000000000006" width="30" height="30" as="geometry" />
        </mxCell>
        <mxCell id="v50nEGcKKZURV2WaWR_b-5" value="" style="shape=image;verticalLabelPosition=bottom;labelBackgroundColor=default;verticalAlign=top;aspect=fixed;imageAspect=0;image=https://i.pinimg.com/736x/13/9b/db/139bdb29ac6060ea542c2d0ae6516892.jpg;" vertex="1" parent="1">
          <mxGeometry x="81" y="407.91" width="30" height="30" as="geometry" />
        </mxCell>
        <mxCell id="v50nEGcKKZURV2WaWR_b-6" value="" style="shape=image;verticalLabelPosition=bottom;labelBackgroundColor=default;verticalAlign=top;aspect=fixed;imageAspect=0;image=https://i.pinimg.com/736x/13/9b/db/139bdb29ac6060ea542c2d0ae6516892.jpg;" vertex="1" parent="1">
          <mxGeometry x="113" y="430.58000000000004" width="30" height="30" as="geometry" />
        </mxCell>
        <mxCell id="v50nEGcKKZURV2WaWR_b-7" value="" style="shape=image;verticalLabelPosition=bottom;labelBackgroundColor=default;verticalAlign=top;aspect=fixed;imageAspect=0;image=https://i.pinimg.com/736x/13/9b/db/139bdb29ac6060ea542c2d0ae6516892.jpg;" vertex="1" parent="1">
          <mxGeometry x="81" y="437.91" width="30" height="30" as="geometry" />
        </mxCell>
        <mxCell id="v50nEGcKKZURV2WaWR_b-8" value="" style="shape=image;verticalLabelPosition=bottom;labelBackgroundColor=default;verticalAlign=top;aspect=fixed;imageAspect=0;image=https://i.pinimg.com/736x/13/9b/db/139bdb29ac6060ea542c2d0ae6516892.jpg;" vertex="1" parent="1">
          <mxGeometry x="50" y="421.75000000000006" width="30" height="30" as="geometry" />
        </mxCell>
        <mxCell id="v50nEGcKKZURV2WaWR_b-9" value="" style="shape=image;verticalLabelPosition=bottom;labelBackgroundColor=default;verticalAlign=top;aspect=fixed;imageAspect=0;image=https://i.pinimg.com/736x/13/9b/db/139bdb29ac6060ea542c2d0ae6516892.jpg;" vertex="1" parent="1">
          <mxGeometry x="52" y="390.58" width="30" height="30" as="geometry" />
        </mxCell>
        <mxCell id="v50nEGcKKZURV2WaWR_b-11" value="Sistema de camaras" style="text;html=1;align=center;verticalAlign=middle;whiteSpace=wrap;rounded=0;fontSize=11;fontStyle=1" vertex="1" parent="1">
          <mxGeometry x="63" y="337.58" width="70" height="30" as="geometry" />
        </mxCell>
        <mxCell id="v50nEGcKKZURV2WaWR_b-19" value="" style="shape=image;verticalLabelPosition=bottom;labelBackgroundColor=default;verticalAlign=top;aspect=fixed;imageAspect=0;image=https://img.freepik.com/vector-premium/diseno-logotipo-icono-pc-computadora_775854-1632.jpg;" vertex="1" parent="1">
          <mxGeometry x="240.66" y="344.08" width="107.67" height="107.67" as="geometry" />
        </mxCell>
        <mxCell id="v50nEGcKKZURV2WaWR_b-20" value="" style="shape=flexArrow;endArrow=classic;html=1;rounded=0;endWidth=15.714285714285714;endSize=4.857142857142857;fillColor=#FF3333;width=5.714285714285714;" edge="1" parent="1">
          <mxGeometry width="50" height="50" relative="1" as="geometry">
            <mxPoint x="225" y="385.4100000000001" as="sourcePoint" />
            <mxPoint x="175" y="385.58000000000004" as="targetPoint" />
            <Array as="points" />
          </mxGeometry>
        </mxCell>
        <mxCell id="v50nEGcKKZURV2WaWR_b-21" value="Monitoreo" style="text;html=1;align=center;verticalAlign=middle;whiteSpace=wrap;rounded=0;" vertex="1" parent="1">
          <mxGeometry x="266.42" y="447.0799999999999" width="56.16" height="20" as="geometry" />
        </mxCell>
        <mxCell id="v50nEGcKKZURV2WaWR_b-22" value="&lt;font style=&quot;font-size: 8px;&quot;&gt;Topico comandos.camaras&lt;/font&gt;" style="text;html=1;align=center;verticalAlign=middle;whiteSpace=wrap;rounded=0;fillColor=default;fontColor=#00CC00;fontSize=8;fontStyle=1" vertex="1" parent="1">
          <mxGeometry x="150.00000000000003" y="321.75000000000006" width="100" height="12.33" as="geometry" />
        </mxCell>
        <mxCell id="v50nEGcKKZURV2WaWR_b-25" value="&lt;font style=&quot;font-size: 7px;&quot;&gt;Conectar/Desconectar/Modificar&lt;/font&gt;" style="text;html=1;align=center;verticalAlign=middle;whiteSpace=wrap;rounded=0;fontStyle=1;fontSize=7;" vertex="1" parent="1">
          <mxGeometry x="150.00000000000003" y="331.08000000000004" width="100" height="17.67" as="geometry" />
        </mxCell>
        <mxCell id="v50nEGcKKZURV2WaWR_b-31" value="" style="shape=flexArrow;endArrow=classic;html=1;rounded=0;endWidth=15.714285714285714;endSize=4.857142857142857;fillColor=#FF3333;width=5.714285714285714;" edge="1" parent="1">
          <mxGeometry width="50" height="50" relative="1" as="geometry">
            <mxPoint x="176.5" y="363.90000000000003" as="sourcePoint" />
            <mxPoint x="225" y="363.75000000000006" as="targetPoint" />
            <Array as="points" />
          </mxGeometry>
        </mxCell>
        <mxCell id="v50nEGcKKZURV2WaWR_b-32" value="SUB" style="text;html=1;align=center;verticalAlign=middle;whiteSpace=wrap;rounded=0;fontSize=8;fontStyle=1" vertex="1" parent="1">
          <mxGeometry x="165" y="348.75000000000006" width="25" height="10" as="geometry" />
        </mxCell>
        <mxCell id="v50nEGcKKZURV2WaWR_b-33" value="PUB" style="text;html=1;align=center;verticalAlign=middle;whiteSpace=wrap;rounded=0;fontSize=8;fontStyle=1" vertex="1" parent="1">
          <mxGeometry x="205" y="392.75000000000006" width="25" height="7.67" as="geometry" />
        </mxCell>
        <mxCell id="v50nEGcKKZURV2WaWR_b-45" value="&lt;font style=&quot;font-size: 8px;&quot;&gt;Topico camaras&lt;/font&gt;" style="text;html=1;align=center;verticalAlign=middle;whiteSpace=wrap;rounded=0;fillColor=default;fontColor=#00CC00;fontSize=8;fontStyle=1" vertex="1" parent="1">
          <mxGeometry x="167" y="462.08000000000004" width="60" height="10.33" as="geometry" />
        </mxCell>
        <mxCell id="v50nEGcKKZURV2WaWR_b-46" value="&lt;font style=&quot;font-size: 7px;&quot;&gt;Lectura de camaras&lt;/font&gt;" style="text;html=1;align=center;verticalAlign=middle;whiteSpace=wrap;rounded=0;fontStyle=1;fontSize=7;" vertex="1" parent="1">
          <mxGeometry x="159.5" y="475.4100000000001" width="75" height="5.34" as="geometry" />
        </mxCell>
        <mxCell id="v50nEGcKKZURV2WaWR_b-53" value="" style="shape=flexArrow;endArrow=classic;html=1;rounded=0;endWidth=15.714285714285714;endSize=4.857142857142857;fillColor=#FF3333;width=5.714285714285714;" edge="1" parent="1">
          <mxGeometry width="50" height="50" relative="1" as="geometry">
            <mxPoint x="366.17" y="412.01" as="sourcePoint" />
            <mxPoint x="416.17" y="412.01" as="targetPoint" />
            <Array as="points" />
          </mxGeometry>
        </mxCell>
        <mxCell id="v50nEGcKKZURV2WaWR_b-54" value="" style="shape=flexArrow;endArrow=classic;html=1;rounded=0;endWidth=15.714285714285714;endSize=4.857142857142857;fillColor=#FF3333;width=5.714285714285714;" edge="1" parent="1">
          <mxGeometry width="50" height="50" relative="1" as="geometry">
            <mxPoint x="418.5" y="435.75" as="sourcePoint" />
            <mxPoint x="366.17" y="435.42" as="targetPoint" />
            <Array as="points" />
          </mxGeometry>
        </mxCell>
        <mxCell id="v50nEGcKKZURV2WaWR_b-55" value="SUB" style="text;html=1;align=center;verticalAlign=middle;whiteSpace=wrap;rounded=0;fontSize=8;fontStyle=1" vertex="1" parent="1">
          <mxGeometry x="358.5" y="397.08" width="25" height="10" as="geometry" />
        </mxCell>
        <mxCell id="v50nEGcKKZURV2WaWR_b-56" value="PUB" style="text;html=1;align=center;verticalAlign=middle;whiteSpace=wrap;rounded=0;fontSize=8;fontStyle=1" vertex="1" parent="1">
          <mxGeometry x="397.5" y="444.40999999999997" width="25" height="7.67" as="geometry" />
        </mxCell>
        <mxCell id="v50nEGcKKZURV2WaWR_b-57" value="&lt;font style=&quot;font-size: 8px;&quot;&gt;Topicos dron.*.informacion y&amp;nbsp; dron.*.id.incidente.atendido&lt;/font&gt;" style="text;html=1;align=center;verticalAlign=middle;whiteSpace=wrap;rounded=0;fillColor=default;fontColor=#00CC00;fontSize=8;fontStyle=1" vertex="1" parent="1">
          <mxGeometry x="336" y="347.09" width="115" height="21.33" as="geometry" />
        </mxCell>
        <mxCell id="v50nEGcKKZURV2WaWR_b-58" value="&lt;font style=&quot;font-size: 7px;&quot;&gt;Lectura posición, estado e incidentes atendidos&lt;/font&gt;" style="text;html=1;align=center;verticalAlign=middle;whiteSpace=wrap;rounded=0;fontStyle=1;fontSize=7;" vertex="1" parent="1">
          <mxGeometry x="348.5" y="372.08" width="90" height="20" as="geometry" />
        </mxCell>
        <mxCell id="v50nEGcKKZURV2WaWR_b-59" value="" style="shape=image;verticalLabelPosition=bottom;labelBackgroundColor=default;verticalAlign=top;aspect=fixed;imageAspect=0;image=https://www.creativefabrica.com/wp-content/uploads/2023/05/07/Drone-Logo-Graphics-69038358-1.jpg;" vertex="1" parent="1">
          <mxGeometry x="443.73" y="397.08" width="37.5" height="25" as="geometry" />
        </mxCell>
        <mxCell id="v50nEGcKKZURV2WaWR_b-60" value="" style="shape=image;verticalLabelPosition=bottom;labelBackgroundColor=default;verticalAlign=top;aspect=fixed;imageAspect=0;image=https://www.creativefabrica.com/wp-content/uploads/2023/05/07/Drone-Logo-Graphics-69038358-1.jpg;" vertex="1" parent="1">
          <mxGeometry x="480.98" y="377.08" width="45" height="30" as="geometry" />
        </mxCell>
        <mxCell id="v50nEGcKKZURV2WaWR_b-61" value="" style="shape=image;verticalLabelPosition=bottom;labelBackgroundColor=default;verticalAlign=top;aspect=fixed;imageAspect=0;image=https://www.creativefabrica.com/wp-content/uploads/2023/05/07/Drone-Logo-Graphics-69038358-1.jpg;" vertex="1" parent="1">
          <mxGeometry x="518.48" y="432.08" width="37.5" height="25" as="geometry" />
        </mxCell>
        <mxCell id="v50nEGcKKZURV2WaWR_b-62" value="" style="shape=image;verticalLabelPosition=bottom;labelBackgroundColor=default;verticalAlign=top;aspect=fixed;imageAspect=0;image=https://www.creativefabrica.com/wp-content/uploads/2023/05/07/Drone-Logo-Graphics-69038358-1.jpg;" vertex="1" parent="1">
          <mxGeometry x="525.98" y="402.08" width="37.5" height="25" as="geometry" />
        </mxCell>
        <mxCell id="v50nEGcKKZURV2WaWR_b-63" value="" style="shape=image;verticalLabelPosition=bottom;labelBackgroundColor=default;verticalAlign=top;aspect=fixed;imageAspect=0;image=https://www.creativefabrica.com/wp-content/uploads/2023/05/07/Drone-Logo-Graphics-69038358-1.jpg;" vertex="1" parent="1">
          <mxGeometry x="446.98" y="437.08" width="37.5" height="25" as="geometry" />
        </mxCell>
        <mxCell id="v50nEGcKKZURV2WaWR_b-64" value="" style="shape=image;verticalLabelPosition=bottom;labelBackgroundColor=default;verticalAlign=top;aspect=fixed;imageAspect=0;image=https://www.creativefabrica.com/wp-content/uploads/2023/05/07/Drone-Logo-Graphics-69038358-1.jpg;" vertex="1" parent="1">
          <mxGeometry x="480.98" y="422.08" width="37.5" height="25" as="geometry" />
        </mxCell>
        <mxCell id="v50nEGcKKZURV2WaWR_b-65" value="Drones" style="text;html=1;align=center;verticalAlign=middle;whiteSpace=wrap;rounded=0;fontStyle=1;fontSize=11;" vertex="1" parent="1">
          <mxGeometry x="481.23" y="367.08" width="44.75" height="10" as="geometry" />
        </mxCell>
        <mxCell id="v50nEGcKKZURV2WaWR_b-66" value="" style="shape=flexArrow;endArrow=classic;html=1;rounded=0;endWidth=15.714285714285714;endSize=4.857142857142857;fillColor=#FF3333;width=5.714285714285714;" edge="1" parent="1">
          <mxGeometry width="50" height="50" relative="1" as="geometry">
            <mxPoint x="227" y="444.4100000000001" as="sourcePoint" />
            <mxPoint x="177" y="444.58000000000004" as="targetPoint" />
            <Array as="points" />
          </mxGeometry>
        </mxCell>
        <mxCell id="v50nEGcKKZURV2WaWR_b-67" value="" style="shape=flexArrow;endArrow=classic;html=1;rounded=0;endWidth=15.714285714285714;endSize=4.857142857142857;fillColor=#FF3333;width=5.714285714285714;" edge="1" parent="1">
          <mxGeometry width="50" height="50" relative="1" as="geometry">
            <mxPoint x="178.5" y="422.90000000000003" as="sourcePoint" />
            <mxPoint x="227" y="422.75000000000006" as="targetPoint" />
            <Array as="points" />
          </mxGeometry>
        </mxCell>
        <mxCell id="v50nEGcKKZURV2WaWR_b-68" value="SUB" style="text;html=1;align=center;verticalAlign=middle;whiteSpace=wrap;rounded=0;fontSize=8;fontStyle=1" vertex="1" parent="1">
          <mxGeometry x="207" y="452.08000000000004" width="25" height="10" as="geometry" />
        </mxCell>
        <mxCell id="v50nEGcKKZURV2WaWR_b-69" value="PUB" style="text;html=1;align=center;verticalAlign=middle;whiteSpace=wrap;rounded=0;fontSize=8;fontStyle=1" vertex="1" parent="1">
          <mxGeometry x="167" y="406.75" width="25" height="7.67" as="geometry" />
        </mxCell>
        <mxCell id="v50nEGcKKZURV2WaWR_b-76" value="" style="shape=image;verticalLabelPosition=bottom;labelBackgroundColor=default;verticalAlign=top;aspect=fixed;imageAspect=0;image=https://img.myloview.es/posters/alarma-de-sirena-senal-de-alarma-de-alerta-de-icono-de-vector-700-142057152.jpg;" vertex="1" parent="1">
          <mxGeometry x="283.34" y="236.43000000000004" width="30" height="30" as="geometry" />
        </mxCell>
        <mxCell id="v50nEGcKKZURV2WaWR_b-77" value="" style="shape=image;verticalLabelPosition=bottom;labelBackgroundColor=default;verticalAlign=top;aspect=fixed;imageAspect=0;image=https://img.myloview.es/posters/alarma-de-sirena-senal-de-alarma-de-alerta-de-icono-de-vector-700-142057152.jpg;" vertex="1" parent="1">
          <mxGeometry x="279.5" y="180" width="30" height="30" as="geometry" />
        </mxCell>
        <mxCell id="v50nEGcKKZURV2WaWR_b-78" value="" style="shape=image;verticalLabelPosition=bottom;labelBackgroundColor=default;verticalAlign=top;aspect=fixed;imageAspect=0;image=https://img.myloview.es/posters/alarma-de-sirena-senal-de-alarma-de-alerta-de-icono-de-vector-700-142057152.jpg;" vertex="1" parent="1">
          <mxGeometry x="313.34000000000003" y="190" width="30" height="30" as="geometry" />
        </mxCell>
        <mxCell id="v50nEGcKKZURV2WaWR_b-79" value="" style="shape=image;verticalLabelPosition=bottom;labelBackgroundColor=default;verticalAlign=top;aspect=fixed;imageAspect=0;image=https://img.myloview.es/posters/alarma-de-sirena-senal-de-alarma-de-alerta-de-icono-de-vector-700-142057152.jpg;" vertex="1" parent="1">
          <mxGeometry x="313.34" y="220" width="30" height="30" as="geometry" />
        </mxCell>
        <mxCell id="v50nEGcKKZURV2WaWR_b-80" value="" style="shape=image;verticalLabelPosition=bottom;labelBackgroundColor=default;verticalAlign=top;aspect=fixed;imageAspect=0;image=https://img.myloview.es/posters/alarma-de-sirena-senal-de-alarma-de-alerta-de-icono-de-vector-700-142057152.jpg;" vertex="1" parent="1">
          <mxGeometry x="253.34" y="233.92" width="30" height="30" as="geometry" />
        </mxCell>
        <mxCell id="v50nEGcKKZURV2WaWR_b-81" value="" style="shape=image;verticalLabelPosition=bottom;labelBackgroundColor=default;verticalAlign=top;aspect=fixed;imageAspect=0;image=https://img.myloview.es/posters/alarma-de-sirena-senal-de-alarma-de-alerta-de-icono-de-vector-700-142057152.jpg;" vertex="1" parent="1">
          <mxGeometry x="253.34" y="203.92000000000002" width="30" height="30" as="geometry" />
        </mxCell>
        <mxCell id="v50nEGcKKZURV2WaWR_b-82" value="" style="shape=image;verticalLabelPosition=bottom;labelBackgroundColor=default;verticalAlign=top;aspect=fixed;imageAspect=0;image=https://img.myloview.es/posters/alarma-de-sirena-senal-de-alarma-de-alerta-de-icono-de-vector-700-142057152.jpg;" vertex="1" parent="1">
          <mxGeometry x="283.34" y="210" width="30" height="30" as="geometry" />
        </mxCell>
        <mxCell id="v50nEGcKKZURV2WaWR_b-84" value="Incidentes" style="text;html=1;align=center;verticalAlign=middle;whiteSpace=wrap;rounded=0;fontStyle=1;fontSize=11;" vertex="1" parent="1">
          <mxGeometry x="263.31" y="170" width="62.38" height="10" as="geometry" />
        </mxCell>
        <mxCell id="v50nEGcKKZURV2WaWR_b-86" value="" style="shape=flexArrow;endArrow=classic;html=1;rounded=0;endWidth=15.714285714285714;endSize=4.857142857142857;fillColor=#FF3333;width=5.714285714285714;" edge="1" parent="1">
          <mxGeometry width="50" height="50" relative="1" as="geometry">
            <mxPoint x="304" y="340" as="sourcePoint" />
            <mxPoint x="304" y="273.75" as="targetPoint" />
            <Array as="points">
              <mxPoint x="304.5" y="293.75" />
            </Array>
          </mxGeometry>
        </mxCell>
        <mxCell id="v50nEGcKKZURV2WaWR_b-92" value="&lt;font style=&quot;font-size: 8px;&quot;&gt;Topicos incidentes&lt;/font&gt;" style="text;html=1;align=center;verticalAlign=middle;whiteSpace=wrap;rounded=0;fillColor=default;fontColor=#00CC00;fontSize=8;fontStyle=1" vertex="1" parent="1">
          <mxGeometry x="224.5" y="290.58" width="75" height="10" as="geometry" />
        </mxCell>
        <mxCell id="v50nEGcKKZURV2WaWR_b-93" value="Publicar incidentes" style="text;html=1;align=center;verticalAlign=middle;whiteSpace=wrap;rounded=0;fontStyle=1;fontSize=7;" vertex="1" parent="1">
          <mxGeometry x="227" y="304.16999999999996" width="72.5" height="11.42" as="geometry" />
        </mxCell>
        <mxCell id="v50nEGcKKZURV2WaWR_b-96" value="PUB" style="text;html=1;align=center;verticalAlign=middle;whiteSpace=wrap;rounded=0;fontSize=8;fontStyle=1" vertex="1" parent="1">
          <mxGeometry x="274.50000000000006" y="332.91999999999996" width="25" height="7.67" as="geometry" />
        </mxCell>
        <mxCell id="v50nEGcKKZURV2WaWR_b-97" value="" style="shape=flexArrow;endArrow=classic;html=1;rounded=0;endWidth=15.714285714285714;endSize=4.857142857142857;fillColor=#FF3333;width=5.714285714285714;exitX=0.5;exitY=0;exitDx=0;exitDy=0;" edge="1" parent="1" source="v50nEGcKKZURV2WaWR_b-11">
          <mxGeometry width="50" height="50" relative="1" as="geometry">
            <mxPoint x="70" y="300" as="sourcePoint" />
            <mxPoint x="250" y="220" as="targetPoint" />
            <Array as="points" />
          </mxGeometry>
        </mxCell>
        <mxCell id="v50nEGcKKZURV2WaWR_b-98" value="" style="shape=flexArrow;endArrow=classic;html=1;rounded=0;endWidth=15.714285714285714;endSize=4.857142857142857;fillColor=#FF3333;width=5.714285714285714;" edge="1" parent="1">
          <mxGeometry width="50" height="50" relative="1" as="geometry">
            <mxPoint x="500" y="360" as="sourcePoint" />
            <mxPoint x="343.34000000000003" y="222.33" as="targetPoint" />
            <Array as="points" />
          </mxGeometry>
        </mxCell>
        <mxCell id="v50nEGcKKZURV2WaWR_b-99" value="SUB" style="text;html=1;align=center;verticalAlign=middle;whiteSpace=wrap;rounded=0;fontSize=8;fontStyle=1" vertex="1" parent="1">
          <mxGeometry x="70" y="322.91999999999996" width="25" height="10" as="geometry" />
        </mxCell>
        <mxCell id="v50nEGcKKZURV2WaWR_b-100" value="SUB" style="text;html=1;align=center;verticalAlign=middle;whiteSpace=wrap;rounded=0;fontSize=8;fontStyle=1" vertex="1" parent="1">
          <mxGeometry x="500.98" y="347.09000000000003" width="25" height="10" as="geometry" />
        </mxCell>
        <mxCell id="v50nEGcKKZURV2WaWR_b-101" value="&lt;font style=&quot;font-size: 8px;&quot;&gt;Topicos incidentes&lt;/font&gt;" style="text;html=1;align=center;verticalAlign=middle;whiteSpace=wrap;rounded=0;fillColor=default;fontColor=#00CC00;fontSize=8;fontStyle=1" vertex="1" parent="1">
          <mxGeometry x="150.81" y="199.42" width="75" height="10" as="geometry" />
        </mxCell>
        <mxCell id="v50nEGcKKZURV2WaWR_b-102" value="Actualización de todos los incidentes" style="text;html=1;align=center;verticalAlign=middle;whiteSpace=wrap;rounded=0;fontStyle=1;fontSize=7;" vertex="1" parent="1">
          <mxGeometry x="153.31" y="211.42" width="72.5" height="15.01" as="geometry" />
        </mxCell>
        <mxCell id="v50nEGcKKZURV2WaWR_b-105" value="&lt;font style=&quot;font-size: 8px;&quot;&gt;Topicos incidentes&lt;/font&gt;" style="text;html=1;align=center;verticalAlign=middle;whiteSpace=wrap;rounded=0;fillColor=default;fontColor=#00CC00;fontSize=8;fontStyle=1" vertex="1" parent="1">
          <mxGeometry x="358.66" y="199.42" width="75" height="10" as="geometry" />
        </mxCell>
        <mxCell id="v50nEGcKKZURV2WaWR_b-106" value="Actualización de incidentes" style="text;html=1;align=center;verticalAlign=middle;whiteSpace=wrap;rounded=0;fontStyle=1;fontSize=7;" vertex="1" parent="1">
          <mxGeometry x="361.16" y="211.42" width="72.5" height="15.01" as="geometry" />
        </mxCell>
        <mxCell id="v50nEGcKKZURV2WaWR_b-107" value="&lt;font style=&quot;font-size: 8px;&quot;&gt;Topicos incidentes.*.creado&lt;/font&gt;" style="text;html=1;align=center;verticalAlign=middle;whiteSpace=wrap;rounded=0;fillColor=default;fontColor=#00CC00;fontSize=8;fontStyle=1" vertex="1" parent="1">
          <mxGeometry x="67" y="239.42000000000002" width="103.31" height="10" as="geometry" />
        </mxCell>
        <mxCell id="v50nEGcKKZURV2WaWR_b-109" value="&lt;font style=&quot;font-size: 8px;&quot;&gt;Topicos incidentes.*.finalizado&lt;/font&gt;" style="text;html=1;align=center;verticalAlign=middle;whiteSpace=wrap;rounded=0;fillColor=default;fontColor=#00CC00;fontSize=8;fontStyle=1" vertex="1" parent="1">
          <mxGeometry x="27" y="283.58000000000004" width="120.31" height="10" as="geometry" />
        </mxCell>
        <mxCell id="v50nEGcKKZURV2WaWR_b-116" value="Actualización de incidentes creados" style="text;html=1;align=center;verticalAlign=middle;whiteSpace=wrap;rounded=0;fontStyle=1;fontSize=7;" vertex="1" parent="1">
          <mxGeometry x="56.69" y="251.42000000000002" width="123.94" height="15.01" as="geometry" />
        </mxCell>
        <mxCell id="v50nEGcKKZURV2WaWR_b-117" value="Actualización de incidentes finalizados" style="text;html=1;align=center;verticalAlign=middle;whiteSpace=wrap;rounded=0;fontStyle=1;fontSize=7;" vertex="1" parent="1">
          <mxGeometry x="47.15" y="295.58000000000004" width="80" height="15.01" as="geometry" />
        </mxCell>
        <mxCell id="v50nEGcKKZURV2WaWR_b-118" value="&lt;font style=&quot;font-size: 8px;&quot;&gt;Topicos incidentes.*.creado&lt;/font&gt;" style="text;html=1;align=center;verticalAlign=middle;whiteSpace=wrap;rounded=0;fillColor=default;fontColor=#00CC00;fontSize=8;fontStyle=1" vertex="1" parent="1">
          <mxGeometry x="419.75" y="239.42000000000002" width="103.31" height="10" as="geometry" />
        </mxCell>
        <mxCell id="v50nEGcKKZURV2WaWR_b-119" value="Actualización de incidentes creados" style="text;html=1;align=center;verticalAlign=middle;whiteSpace=wrap;rounded=0;fontStyle=1;fontSize=7;" vertex="1" parent="1">
          <mxGeometry x="409.44" y="251.42000000000002" width="123.94" height="15.01" as="geometry" />
        </mxCell>
        <mxCell id="v50nEGcKKZURV2WaWR_b-120" value="&lt;font style=&quot;font-size: 8px;&quot;&gt;Topicos incidentes.*.finalizado&lt;/font&gt;" style="text;html=1;align=center;verticalAlign=middle;whiteSpace=wrap;rounded=0;fillColor=default;fontColor=#00CC00;fontSize=8;fontStyle=1" vertex="1" parent="1">
          <mxGeometry x="445.99" y="283.58000000000004" width="120.31" height="10" as="geometry" />
        </mxCell>
        <mxCell id="v50nEGcKKZURV2WaWR_b-121" value="Actualización de incidentes finalizados" style="text;html=1;align=center;verticalAlign=middle;whiteSpace=wrap;rounded=0;fontStyle=1;fontSize=7;" vertex="1" parent="1">
          <mxGeometry x="466.14" y="295.58000000000004" width="80" height="15.01" as="geometry" />
        </mxCell>
        <mxCell id="v50nEGcKKZURV2WaWR_b-124" value="" style="curved=1;endArrow=classic;html=1;rounded=0;" edge="1" parent="1">
          <mxGeometry width="50" height="50" relative="1" as="geometry">
            <mxPoint x="510" y="460" as="sourcePoint" />
            <mxPoint x="540" y="400" as="targetPoint" />
            <Array as="points">
              <mxPoint x="570" y="480" />
              <mxPoint x="600" y="460" />
              <mxPoint x="600" y="410" />
              <mxPoint x="580" y="380" />
              <mxPoint x="560" y="370" />
            </Array>
          </mxGeometry>
        </mxCell>
        <mxCell id="v50nEGcKKZURV2WaWR_b-125" value="&lt;font style=&quot;font-size: 8px;&quot;&gt;Topicos dron.*.informacion y&amp;nbsp; dron.*.id.incidente.atendido&lt;/font&gt;" style="text;html=1;align=center;verticalAlign=middle;whiteSpace=wrap;rounded=0;fillColor=default;fontColor=#00CC00;fontSize=8;fontStyle=1" vertex="1" parent="1">
          <mxGeometry x="546.14" y="344.25" width="115" height="21.33" as="geometry" />
        </mxCell>
        <mxCell id="v50nEGcKKZURV2WaWR_b-126" value="&lt;font style=&quot;font-size: 7px;&quot;&gt;Lectura posición, estado e incidentes atendidos de los demás drones&lt;/font&gt;" style="text;html=1;align=center;verticalAlign=middle;whiteSpace=wrap;rounded=0;fontStyle=1;fontSize=7;" vertex="1" parent="1">
          <mxGeometry x="580" y="372.08" width="90" height="20" as="geometry" />
        </mxCell>
        <mxCell id="v50nEGcKKZURV2WaWR_b-128" value="SUB" style="text;html=1;align=center;verticalAlign=middle;whiteSpace=wrap;rounded=0;fontSize=8;fontStyle=1" vertex="1" parent="1">
          <mxGeometry x="487.23" y="462.41" width="25" height="10" as="geometry" />
        </mxCell>
        <mxCell id="v50nEGcKKZURV2WaWR_b-129" value="(De un dron a todos los demas)" style="text;html=1;align=center;verticalAlign=middle;whiteSpace=wrap;rounded=0;fontSize=8;fontStyle=1" vertex="1" parent="1">
          <mxGeometry x="469.21" y="475.41" width="73.86" height="10" as="geometry" />
        </mxCell>
      </root>
    </mxGraphModel>
  </diagram>
</mxfile>
